<svg width="1280" height="720" viewBox="0 0 1280 720" fill="none" xmlns="http://www.w3.org/2000/svg">
  <rect width="1280" height="720" rx="36" fill="#08111F"/>
  <rect width="1280" height="720" rx="36" fill="url(#paint0_radial)" fill-opacity="0.9"/>
  <rect x="64" y="56" width="1152" height="608" rx="28" fill="#0D1A2D" stroke="#284766" stroke-width="2"/>
  <rect x="112" y="120" width="1056" height="460" rx="24" fill="url(#paint1_linear)"/>
  <path d="M486 356C486 271.5 554.5 203 639 203H641C725.5 203 794 271.5 794 356V363H851C878.6 363 901 385.4 901 413V461C901 488.6 878.6 511 851 511H429C401.4 511 379 488.6 379 461V413C379 385.4 401.4 363 429 363H486V356Z" fill="#132743" stroke="#34CFFF" stroke-width="10"/>
  <circle cx="640" cy="413" r="74" fill="#08111F" stroke="#A5EFFF" stroke-width="10"/>
  <circle cx="640" cy="413" r="34" fill="#34CFFF" fill-opacity="0.85"/>
  <rect x="536" y="134" width="208" height="38" rx="19" fill="#10233D" stroke="#3B5C7E"/>
  <circle cx="572" cy="153" r="8" fill="#34CFFF"/>
  <rect x="592" y="146" width="116" height="14" rx="7" fill="#7EA4C8" fill-opacity="0.6"/>
  <rect x="164" y="612" width="390" height="16" rx="8" fill="#16304F"/>
  <rect x="164" y="612" width="184" height="16" rx="8" fill="#34CFFF"/>
  <rect x="854" y="612" width="262" height="16" rx="8" fill="#16304F"/>
  <text x="640" y="634" text-anchor="middle" fill="#E7F1FF" font-family="Arial, sans-serif" font-size="42" font-weight="700">
    Caméra en attente
  </text>
  <text x="640" y="676" text-anchor="middle" fill="#9FC2E4" font-family="Arial, sans-serif" font-size="22">
    Le flux vidéo apparaîtra ici dès l'activation de la caméra
  </text>
  <defs>
    <radialGradient id="paint0_radial" cx="0" cy="0" r="1" gradientUnits="userSpaceOnUse" gradientTransform="translate(210 108) rotate(33.14) scale(723.161 587.359)">
      <stop stop-color="#1FD0FF" stop-opacity="0.28"/>
      <stop offset="1" stop-color="#08111F" stop-opacity="0"/>
    </radialGradient>
    <linearGradient id="paint1_linear" x1="112" y1="120" x2="1168" y2="580" gradientUnits="userSpaceOnUse">
      <stop stop-color="#10233D"/>
      <stop offset="1" stop-color="#0A1528"/>
    </linearGradient>
  </defs>
</svg>
